<?xml version="1.0" encoding="UTF-8" standalone="no"?>
<svg
   id="svg5"
   width="50.799999mm"
   height="128.5mm"
   viewBox="0 0 50.799999 128.5"
   version="1.1"
   sodipodi:docname="arpsichord.svg"
   inkscape:version="1.2.2 (b0a84865, 2022-12-01)"
   xmlns:inkscape="http://www.inkscape.org/namespaces/inkscape"
   xmlns:sodipodi="http://sodipodi.sourceforge.net/DTD/sodipodi-0.dtd"
   xmlns="http://www.w3.org/2000/svg"
   xmlns:svg="http://www.w3.org/2000/svg">
  <defs
     id="defs50">
    <rect
       x="96"
       y="134.4"
       width="76.8"
       height="38.4"
       id="rect1138" />
    <rect
       x="172.8"
       y="134.4"
       width="76.8"
       height="38.4"
       id="rect1120" />
    <rect
       x="172.8"
       y="134.4"
       width="76.8"
       height="38.4"
       id="rect1114" />
    <rect
       x="19.2"
       y="134.4"
       width="76.8"
       height="38.4"
       id="rect1108" />
    <rect
       x="19.2"
       y="134.4"
       width="76.8"
       height="38.4"
       id="rect851" />
    <rect
       x="0"
       y="0"
       width="192"
       height="57.600001"
       id="rect570" />
    <rect
       x="19.2"
       y="19.2"
       width="153.6"
       height="57.6"
       id="rect564" />
    <rect
       x="19.2"
       y="19.2"
       width="153.6"
       height="38.4"
       id="rect558" />
    <rect
       x="0"
       y="57.6"
       width="192"
       height="38.4"
       id="rect552" />
    <rect
       x="0"
       y="19.2"
       width="192"
       height="38.4"
       id="rect546" />
  </defs>
  <sodipodi:namedview
     id="namedview48"
     pagecolor="#505050"
     bordercolor="#eeeeee"
     borderopacity="1"
     inkscape:showpageshadow="0"
     inkscape:pageopacity="0"
     inkscape:pagecheckerboard="0"
     inkscape:deskcolor="#505050"
     inkscape:document-units="mm"
     showgrid="true"
     inkscape:zoom="1.3760502"
     inkscape:cx="73.761844"
     inkscape:cy="279.42294"
     inkscape:window-width="1728"
     inkscape:window-height="993"
     inkscape:window-x="832"
     inkscape:window-y="1479"
     inkscape:window-maximized="0"
     inkscape:current-layer="svg5">
    <inkscape:grid
       type="xygrid"
       id="grid102"
       units="in"
       spacingx="5.08"
       spacingy="5.08"
       originx="0"
       originy="0" />
  </sodipodi:namedview>
  <g
     id="layer1"
     transform="scale(0.29868295,0.34871099)"
     style="display:inline">
    <rect
       id="rect331"
       width="170.08"
       height="368.5"
       fill="#ffeee6"
       x="0"
       y="0" />
  </g>
  <g
     id="components"
     style="display:none"
     inkscape:label="components">
    <circle
       cx="15.180353"
       cy="30.48"
       r="5.1396465"
       fill="#00ff00"
       id="circle32"
       inkscape:label="note"
       style="stroke-width:0.35692" />
    <circle
       cx="35.560001"
       cy="30.48"
       r="5.0799999"
       fill="#00ff00"
       id="circle36"
       inkscape:label="clk"
       style="stroke-width:0.352778" />
    <circle
       cx="15.240002"
       cy="55.880001"
       r="5.079998"
       fill="#ff0000"
       id="circle38"
       inkscape:label="steps"
       style="stroke-width:0.352778" />
    <circle
       cx="25.4"
       cy="106.68"
       r="5.079999"
       fill="#0000ff"
       id="circle42"
       inkscape:label="note"
       style="display:inline;stroke-width:0.352778" />
    <circle
       cx="35.560001"
       cy="55.880001"
       r="5.079998"
       fill="#ff0000"
       id="circle1206"
       inkscape:label="offset"
       style="stroke-width:0.352778" />
    <circle
       cx="25.400002"
       cy="76.199997"
       r="5.079998"
       fill="#ff0000"
       id="circle1218"
       inkscape:label="scale"
       style="stroke-width:0.352778" />
  </g>
  <g
     inkscape:groupmode="layer"
     id="layer2"
     inkscape:label="Layer 1">
    <g
       aria-label="SCALE"
       id="text1437"
       style="font-weight:500;font-size:4.99999px;font-family:Iosevka;-inkscape-font-specification:'Iosevka, Medium';text-align:center;text-anchor:middle;display:inline;stroke-width:0.264583">
      <path
         d="m 20.395033,86.400001 q -0.129999,0 -0.254999,-0.02 -0.125,-0.02 -0.24,-0.075 -0.114999,-0.055 -0.209999,-0.14 -0.095,-0.09 -0.16,-0.2 -0.06,-0.109999 -0.09,-0.229999 -0.03,-0.125 -0.03,-0.255 0,0 0,-0.005 0,-0.005 0,-0.005 h 0.45 q 0,0 0,0.005 0,0 0,0 0,0.105 0.035,0.21 0.035,0.1 0.11,0.175 0.075,0.075 0.18,0.109999 0.105,0.03 0.209999,0.03 0.11,0 0.215,-0.035 0.105,-0.04 0.18,-0.119999 0.075,-0.085 0.104999,-0.19 0.035,-0.11 0.035,-0.22 0,-0.124999 -0.05,-0.239999 -0.05,-0.12 -0.14,-0.205 -0.09,-0.09 -0.2,-0.144999 -0.11,-0.06 -0.224999,-0.115 -0.11,-0.06 -0.22,-0.12 -0.105,-0.065 -0.2,-0.14 -0.095,-0.08 -0.179999,-0.174999 -0.08,-0.095 -0.14,-0.205 -0.055,-0.11 -0.085,-0.229999 -0.03,-0.125 -0.03,-0.25 0,-0.125 0.025,-0.249999 0.03,-0.13 0.085,-0.24 0.055,-0.115 0.145,-0.209999 0.09,-0.095 0.199999,-0.155 0.11,-0.06 0.235,-0.085 0.13,-0.025 0.254999,-0.025 0.125,0 0.25,0.025 0.125,0.02 0.234999,0.075 0.11,0.055 0.2,0.145 0.09,0.09 0.145,0.199999 0.06,0.11 0.085,0.235 0.03,0.119999 0.03,0.239999 0,0.005 0,0.01 0,0 0,0.005 h -0.45 q 0,-0.005 0,-0.005 0,0 0,-0.005 0,-0.1 -0.03,-0.199999 -0.03,-0.1 -0.1,-0.175 -0.065,-0.08 -0.165,-0.115 -0.095,-0.035 -0.2,-0.035 -0.104999,0 -0.204999,0.045 -0.1,0.04 -0.165,0.125 -0.065,0.08 -0.095,0.185 -0.03,0.104999 -0.03,0.209999 0,0.125 0.05,0.245 0.05,0.114999 0.135,0.204999 0.09,0.085 0.2,0.145 0.109999,0.055 0.219999,0.11 0.115,0.055 0.22,0.119999 0.11,0.065 0.204999,0.145 0.1,0.075 0.18,0.17 0.085,0.095 0.14,0.204999 0.06,0.11 0.09,0.235 0.03,0.12 0.03,0.244999 0,0.13 -0.03,0.26 -0.03,0.125 -0.09,0.239999 -0.06,0.115 -0.155,0.21 -0.09,0.09 -0.21,0.15 -0.114999,0.06 -0.244999,0.08 -0.125,0.025 -0.255,0.025 z"
         id="path1535" />
      <path
         d="m 22.885019,86.400001 q -0.13,0 -0.265,-0.025 -0.129999,-0.025 -0.249999,-0.09 -0.115,-0.065 -0.205,-0.165 -0.09,-0.1 -0.149999,-0.219999 -0.055,-0.125 -0.075,-0.255 -0.02,-0.135 -0.02,-0.264999 v -1.714997 q 0,-0.13 0.02,-0.259999 0.02,-0.135 0.075,-0.255 0.06,-0.125 0.149999,-0.225 0.09,-0.1 0.205,-0.164999 0.12,-0.065 0.249999,-0.09 0.135,-0.025 0.265,-0.025 0.125,0 0.249999,0.02 0.125,0.02 0.235,0.075 0.115,0.055 0.205,0.145 0.095,0.085 0.154999,0.194999 0.06,0.11 0.09,0.235 0.03,0.119999 0.03,0.244999 0,0.005 0,0.01 0,0 0,0.005 h -0.449999 q 0,0 0,0 0,-0.005 0,-0.005 0,-0.105 -0.035,-0.204999 -0.03,-0.1 -0.105,-0.175 -0.07,-0.08 -0.169999,-0.11 -0.1,-0.035 -0.205,-0.035 -0.115,0 -0.225,0.05 -0.104999,0.045 -0.174999,0.14 -0.065,0.09 -0.09,0.204999 -0.025,0.11 -0.025,0.225 v 1.714997 q 0,0.114999 0.025,0.229999 0.025,0.11 0.09,0.205 0.07,0.09 0.174999,0.139999 0.11,0.045 0.225,0.045 0.105,0 0.205,-0.03 0.1,-0.035 0.169999,-0.109999 0.075,-0.08 0.105,-0.18 0.035,-0.1 0.035,-0.205 0,0 0,0 0,-0.005 0,-0.005 h 0.449999 q 0,0.005 0,0.01 0,0 0,0.005 0,0.125 -0.03,0.25 -0.03,0.12 -0.09,0.229999 -0.06,0.11 -0.154999,0.2 -0.09,0.085 -0.205,0.14 -0.11,0.055 -0.235,0.075 -0.124999,0.02 -0.249999,0.02 z"
         id="path1537" />
      <path
         d="m 24.355006,86.360001 0.784999,-3.674993 h 0.519999 l 0.784998,3.674993 h -0.459999 l -0.184999,-0.924999 h -0.799999 l -0.184999,0.924999 z m 0.719999,-1.324998 h 0.649999 l -0.225,-1.124997 q -0.025,-0.13 -0.05,-0.26 -0.025,-0.13 -0.05,-0.264999 -0.025,0.134999 -0.05,0.264999 -0.025,0.13 -0.05,0.26 z"
         id="path1539" />
      <path
         d="m 27.114991,86.360001 v -3.674993 h 0.449999 v 3.274993 h 1.314998 v 0.4 z"
         id="path1541" />
      <path
         d="m 29.499977,86.360001 v -3.674993 h 1.839996 v 0.399999 h -1.389997 v 1.164998 h 1.109998 v 0.399999 h -1.109998 v 1.309997 h 1.389997 v 0.4 z"
         id="path1543" />
    </g>
    <g
       aria-label="STEPS"
       id="text1210"
       style="font-weight:500;font-size:4.99999px;font-family:Iosevka;-inkscape-font-specification:'Iosevka, Medium';text-align:center;text-anchor:middle;display:inline;stroke-width:0.264583">
      <path
         d="m 10.235034,66.080001 q -0.13,0 -0.2549999,-0.02 -0.1249997,-0.02 -0.2399995,-0.075 -0.1149997,-0.055 -0.2099996,-0.14 -0.095,-0.09 -0.1599996,-0.199999 -0.06,-0.11 -0.09,-0.23 -0.03,-0.125 -0.03,-0.254999 0,0 0,-0.005 0,-0.005 0,-0.005 h 0.4499991 q 0,0 0,0.005 0,0 0,0 0,0.104999 0.035,0.209999 0.035,0.1 0.1099998,0.175 0.075,0.075 0.1799996,0.11 0.105,0.03 0.21,0.03 0.109999,0 0.214999,-0.035 0.105,-0.04 0.18,-0.12 0.075,-0.085 0.105,-0.19 0.035,-0.109999 0.035,-0.219999 0,-0.125 -0.05,-0.24 -0.05,-0.12 -0.14,-0.204999 -0.09,-0.09 -0.2,-0.145 -0.109999,-0.06 -0.224999,-0.115 -0.11,-0.06 -0.2199998,-0.12 -0.1049998,-0.065 -0.1999996,-0.139999 -0.095,-0.08 -0.1799996,-0.175 -0.08,-0.095 -0.1399997,-0.205 -0.055,-0.109999 -0.085,-0.229999 -0.03,-0.125 -0.03,-0.25 0,-0.124999 0.025,-0.249999 0.03,-0.13 0.085,-0.24 0.055,-0.114999 0.1449997,-0.209999 0.09,-0.095 0.1999996,-0.155 0.1099998,-0.06 0.2349995,-0.085 0.1299999,-0.025 0.2549999,-0.025 0.124999,0 0.249999,0.025 0.125,0.02 0.235,0.075 0.109999,0.055 0.199999,0.145 0.09,0.09 0.145,0.199999 0.06,0.11 0.085,0.235 0.03,0.12 0.03,0.24 0,0.005 0,0.01 0,0 0,0.005 h -0.449999 q 0,-0.005 0,-0.005 0,0 0,-0.005 0,-0.1 -0.03,-0.2 -0.03,-0.1 -0.1,-0.175 -0.065,-0.08 -0.165,-0.115 -0.095,-0.035 -0.199999,-0.035 -0.105,0 -0.205,0.045 -0.1,0.04 -0.1649996,0.125 -0.065,0.08 -0.095,0.185 -0.03,0.105 -0.03,0.209999 0,0.125 0.05,0.245 0.05,0.115 0.1349997,0.205 0.09,0.085 0.1999998,0.144999 0.11,0.055 0.219999,0.11 0.115,0.055 0.22,0.12 0.11,0.065 0.205,0.144999 0.1,0.075 0.179999,0.17 0.085,0.095 0.14,0.205 0.06,0.11 0.09,0.234999 0.03,0.12 0.03,0.245 0,0.13 -0.03,0.259999 -0.03,0.125 -0.09,0.24 -0.06,0.115 -0.155,0.209999 -0.09,0.09 -0.209999,0.15 -0.115,0.06 -0.245,0.08 -0.125,0.025 -0.254999,0.025 z"
         id="path1546" />
      <path
         d="m 12.51502,66.040001 v -3.274994 h -0.774999 v -0.399999 h 1.999996 v 0.399999 h -0.774998 v 3.274994 z"
         id="path1548" />
      <path
         d="m 14.340006,66.040001 v -3.674993 h 1.839997 v 0.399999 h -1.389998 v 1.164998 h 1.109998 v 0.399999 h -1.109998 v 1.309998 h 1.389998 v 0.399999 z"
         id="path1550" />
      <path
         d="m 16.879991,66.040001 v -3.674993 h 0.884999 q 0.139999,0 0.279999,0.03 0.14,0.03 0.26,0.1 0.119999,0.07 0.209999,0.18 0.095,0.104999 0.15,0.234999 0.055,0.13 0.075,0.27 0.02,0.139999 0.02,0.279999 0,0.14 -0.02,0.28 -0.02,0.134999 -0.075,0.264999 -0.055,0.13 -0.15,0.24 -0.09,0.104999 -0.209999,0.179999 -0.12,0.07 -0.26,0.1 -0.14,0.025 -0.279999,0.025 h -0.434999 v 1.489997 z m 0.45,-1.889996 h 0.434999 q 0.085,0 0.164999,-0.02 0.085,-0.02 0.15,-0.07 0.065,-0.05 0.11,-0.12 0.05,-0.075 0.075,-0.15 0.025,-0.08 0.035,-0.164999 0.01,-0.085 0.01,-0.165 0,-0.085 -0.01,-0.165 -0.01,-0.085 -0.035,-0.164999 -0.025,-0.08 -0.075,-0.15 -0.045,-0.07 -0.11,-0.12 -0.065,-0.05 -0.15,-0.07 -0.08,-0.025 -0.164999,-0.025 h -0.434999 z"
         id="path1552" />
      <path
         d="m 20.234975,66.080001 q -0.129999,0 -0.254999,-0.02 -0.125,-0.02 -0.24,-0.075 -0.114999,-0.055 -0.209999,-0.14 -0.095,-0.09 -0.16,-0.199999 -0.06,-0.11 -0.09,-0.23 -0.03,-0.125 -0.03,-0.254999 0,0 0,-0.005 0,-0.005 0,-0.005 h 0.45 q 0,0 0,0.005 0,0 0,0 0,0.104999 0.035,0.209999 0.035,0.1 0.11,0.175 0.075,0.075 0.18,0.11 0.105,0.03 0.209999,0.03 0.11,0 0.215,-0.035 0.105,-0.04 0.18,-0.12 0.075,-0.085 0.104999,-0.19 0.035,-0.109999 0.035,-0.219999 0,-0.125 -0.05,-0.24 -0.05,-0.12 -0.139999,-0.204999 -0.09,-0.09 -0.2,-0.145 -0.11,-0.06 -0.224999,-0.115 -0.11,-0.06 -0.22,-0.12 -0.105,-0.065 -0.2,-0.139999 -0.095,-0.08 -0.179999,-0.175 -0.08,-0.095 -0.14,-0.205 -0.055,-0.109999 -0.085,-0.229999 -0.03,-0.125 -0.03,-0.25 0,-0.124999 0.025,-0.249999 0.03,-0.13 0.085,-0.24 0.055,-0.114999 0.145,-0.209999 0.09,-0.095 0.199999,-0.155 0.11,-0.06 0.235,-0.085 0.13,-0.025 0.254999,-0.025 0.125,0 0.25,0.025 0.125,0.02 0.234999,0.075 0.11,0.055 0.2,0.145 0.09,0.09 0.145,0.199999 0.06,0.11 0.085,0.235 0.03,0.12 0.03,0.24 0,0.005 0,0.01 0,0 0,0.005 h -0.45 q 0,-0.005 0,-0.005 0,0 0,-0.005 0,-0.1 -0.03,-0.2 -0.03,-0.1 -0.1,-0.175 -0.065,-0.08 -0.165,-0.115 -0.095,-0.035 -0.2,-0.035 -0.104999,0 -0.204999,0.045 -0.1,0.04 -0.165,0.125 -0.065,0.08 -0.095,0.185 -0.03,0.105 -0.03,0.209999 0,0.125 0.05,0.245 0.05,0.115 0.135,0.205 0.09,0.085 0.2,0.144999 0.109999,0.055 0.219999,0.11 0.115,0.055 0.22,0.12 0.11,0.065 0.204999,0.144999 0.1,0.075 0.18,0.17 0.085,0.095 0.14,0.205 0.06,0.11 0.09,0.234999 0.03,0.12 0.03,0.245 0,0.13 -0.03,0.259999 -0.03,0.125 -0.09,0.24 -0.06,0.115 -0.155,0.209999 -0.09,0.09 -0.21,0.15 -0.114999,0.06 -0.244999,0.08 -0.125,0.025 -0.255,0.025 z"
         id="path1554" />
    </g>
    <g
       aria-label="ARPSICHORD"
       id="text784"
       style="font-weight:900;font-size:10px;font-family:Iosevka;-inkscape-font-specification:'Iosevka, Heavy';text-align:center;letter-spacing:-0.529167px;text-anchor:middle;white-space:pre;display:inline;stroke-width:0.264583">
      <path
         d="m 3.375932,15.24 1.38,-7.3500002 h 1.58 l 1.38,7.3500002 h -1.39 l -0.21,-1.51 h -1.14 l -0.21,1.51 z m 1.75,-2.65 h 0.84 l -0.31,-2.25 q -0.03,-0.18 -0.06,-0.3600002 -0.02,-0.18 -0.05,-0.36 -0.03,0.18 -0.06,0.36 -0.02,0.1800002 -0.05,0.3600002 z"
         id="path1557" />
      <path
         d="M 8.0767457,15.24 V 7.8899998 h 1.9800003 q 0.29,0 0.57,0.07 0.28,0.06 0.52,0.22 0.25,0.15 0.42,0.38 0.18,0.23 0.28,0.5 0.11,0.27 0.15,0.56 0.04,0.28 0.04,0.5700002 0,0.32 -0.05,0.64 -0.05,0.32 -0.19,0.61 -0.13,0.29 -0.36,0.53 -0.23,0.23 -0.53,0.36 l 1.31,2.91 h -1.41 L 9.5667457,12.49 h -0.12 v 2.75 z m 1.9800003,-3.89 q 0.12,0 0.23,-0.06 0.11,-0.07 0.17,-0.17 0.07,-0.1 0.11,-0.21 0.04,-0.12 0.06,-0.24 0.03,-0.12 0.03,-0.24 0.01,-0.12 0.01,-0.24 0,-0.12 -0.01,-0.2400002 0,-0.12 -0.03,-0.24 -0.02,-0.12 -0.06,-0.23 -0.04,-0.12 -0.11,-0.22 -0.06,-0.11 -0.17,-0.17 -0.11,-0.06 -0.23,-0.06 H 9.4467457 V 11.35 Z"
         id="path1559" />
      <path
         d="M 12.687559,15.24 V 7.8899998 h 1.84 q 0.29,0 0.58,0.06 0.29,0.06 0.54,0.21 0.25,0.15 0.44,0.38 0.19,0.23 0.3,0.5 0.12,0.27 0.16,0.57 0.04,0.29 0.04,0.5800002 0,0.29 -0.04,0.59 -0.04,0.29 -0.16,0.56 -0.11,0.27 -0.3,0.5 -0.19,0.22 -0.44,0.37 -0.25,0.15 -0.54,0.22 -0.29,0.06 -0.58,0.06 h -0.47 v 2.75 z m 1.84,-3.89 q 0.13,0 0.24,-0.05 0.12,-0.06 0.2,-0.15 0.08,-0.1 0.13,-0.22 0.05,-0.12 0.07,-0.24 0.03,-0.12 0.04,-0.24 0.01,-0.13 0.01,-0.26 0,-0.13 -0.01,-0.2500002 -0.01,-0.13 -0.04,-0.25 -0.02,-0.12 -0.07,-0.24 -0.05,-0.12 -0.13,-0.21 -0.08,-0.1 -0.2,-0.15 -0.11,-0.06 -0.24,-0.06 h -0.47 V 11.35 Z"
         id="path1561" />
      <path
         d="m 18.938374,15.32 q -0.26,0 -0.53,-0.05 -0.26,-0.04 -0.5,-0.16 -0.24,-0.13 -0.43,-0.32 -0.19,-0.19 -0.32,-0.42 -0.12,-0.24 -0.18,-0.5 -0.06,-0.27 -0.06,-0.54 h 1.37 q 0,0.15 0.03,0.3 0.04,0.15 0.12,0.28 0.08,0.13 0.21,0.2 0.14,0.07 0.29,0.07 0.16,0 0.3,-0.08 0.14,-0.08 0.22,-0.21 0.09,-0.14 0.12,-0.3 0.04,-0.16 0.04,-0.31 0,-0.23 -0.1,-0.44 -0.1,-0.22 -0.27,-0.37 -0.16,-0.15 -0.37,-0.25 -0.2,-0.11 -0.4,-0.22 -0.2,-0.12 -0.39,-0.25 -0.18,-0.13 -0.35,-0.28 -0.16,-0.16 -0.3,-0.34 -0.14,-0.18 -0.24,-0.39 -0.09,-0.21 -0.14,-0.43 -0.04,-0.23 -0.04,-0.4500002 0,-0.27 0.05,-0.53 0.06,-0.26 0.17,-0.5 0.12,-0.25 0.3,-0.45 0.18,-0.2 0.41,-0.33 0.23,-0.13 0.49,-0.18 0.27,-0.06 0.54,-0.06 0.26,0 0.52,0.05 0.26,0.05 0.49,0.18 0.23,0.12 0.41,0.32 0.18,0.19 0.29,0.43 0.12,0.24 0.17,0.5 0.06,0.25 0.06,0.52 h -1.37 q 0,-0.15 -0.03,-0.29 -0.02,-0.15 -0.09,-0.27 -0.06,-0.13 -0.19,-0.21 -0.12,-0.09 -0.26,-0.09 -0.15,0 -0.28,0.09 -0.13,0.09 -0.2,0.23 -0.06,0.13 -0.09,0.28 -0.03,0.15 -0.03,0.3 0,0.2300002 0.09,0.4400002 0.1,0.21 0.27,0.37 0.17,0.15 0.37,0.26 0.21,0.1 0.4,0.21 0.2,0.11 0.39,0.24 0.19,0.13 0.35,0.29 0.17,0.15 0.31,0.34 0.14,0.18 0.23,0.39 0.1,0.2 0.14,0.43 0.05,0.22 0.05,0.45 0,0.27 -0.06,0.54 -0.06,0.27 -0.18,0.51 -0.12,0.24 -0.31,0.44 -0.19,0.2 -0.43,0.33 -0.24,0.13 -0.51,0.18 -0.27,0.05 -0.55,0.05 z"
         id="path1563" />
      <path
         d="M 21.679187,15.24 V 14.1 h 1.07 V 9.0299998 h -1.07 v -1.14 h 3.5 v 1.14 h -1.07 V 14.1 h 1.07 v 1.14 z"
         id="path1565" />
      <path
         d="m 27.880001,15.32 q -0.29,0 -0.57,-0.06 -0.28,-0.06 -0.52,-0.2 -0.24,-0.15 -0.43,-0.37 -0.18,-0.23 -0.29,-0.49 -0.11,-0.26 -0.15,-0.54 -0.04,-0.29 -0.04,-0.57 v -3.05 q 0,-0.2800002 0.04,-0.5600002 0.04,-0.29 0.15,-0.55 0.11,-0.26 0.29,-0.48 0.19,-0.23 0.43,-0.37 0.24,-0.15 0.52,-0.21 0.28,-0.06 0.57,-0.06 0.26,0 0.52,0.05 0.27,0.05 0.5,0.18 0.24,0.12 0.42,0.32 0.19,0.2 0.3,0.44 0.12,0.23 0.18,0.5 0.06,0.26 0.06,0.53 h -1.37 q 0,-0.15 -0.03,-0.3 -0.03,-0.15 -0.1,-0.28 -0.07,-0.13 -0.2,-0.21 -0.13,-0.09 -0.28,-0.09 -0.12,0 -0.23,0.06 -0.1,0.05 -0.18,0.14 -0.07,0.09 -0.12,0.2 -0.04,0.11 -0.07,0.23 -0.02,0.11 -0.03,0.23 0,0.11 0,0.2300002 v 3.05 q 0,0.12 0,0.24 0.01,0.11 0.03,0.23 0.03,0.11 0.07,0.22 0.05,0.11 0.12,0.2 0.08,0.09 0.18,0.15 0.11,0.05 0.23,0.05 0.15,0 0.28,-0.08 0.13,-0.09 0.2,-0.22 0.07,-0.13 0.1,-0.28 0.03,-0.15 0.03,-0.3 h 1.37 q 0,0.27 -0.06,0.54 -0.06,0.26 -0.18,0.5 -0.11,0.23 -0.3,0.43 -0.18,0.2 -0.42,0.33 -0.23,0.12 -0.5,0.17 -0.26,0.05 -0.52,0.05 z"
         id="path1567" />
      <path
         d="M 30.430816,15.24 V 7.8899998 h 1.37 V 10.91 h 1.14 V 7.8899998 h 1.37 V 15.24 h -1.37 v -3.19 h -1.14 v 3.19 z"
         id="path1569" />
      <path
         d="m 36.84163,15.32 q -0.29,0 -0.57,-0.06 -0.28,-0.06 -0.53,-0.2 -0.24,-0.15 -0.43,-0.37 -0.18,-0.22 -0.3,-0.48 -0.11,-0.27 -0.15,-0.55 -0.04,-0.28 -0.04,-0.57 v -3.05 q 0,-0.2900002 0.04,-0.5700002 0.04,-0.28 0.15,-0.54 0.12,-0.27 0.3,-0.49 0.19,-0.22 0.43,-0.36 0.25,-0.15 0.53,-0.22 0.28,-0.08 0.57,-0.08 0.29,0 0.57,0.08 0.28,0.07 0.52,0.22 0.25,0.14 0.43,0.36 0.19,0.22 0.3,0.49 0.12,0.26 0.16,0.54 0.04,0.28 0.04,0.5700002 v 3.05 q 0,0.29 -0.04,0.57 -0.04,0.28 -0.16,0.55 -0.11,0.26 -0.3,0.48 -0.18,0.22 -0.43,0.37 -0.24,0.14 -0.52,0.2 -0.28,0.06 -0.57,0.06 z m 0,-1.14 q 0.12,0 0.23,-0.05 0.11,-0.05 0.18,-0.14 0.08,-0.09 0.12,-0.2 0.05,-0.11 0.07,-0.23 0.03,-0.12 0.04,-0.23 0.01,-0.12 0.01,-0.24 v -3.05 q 0,-0.1200002 -0.01,-0.2400002 -0.01,-0.12 -0.04,-0.23 -0.02,-0.12 -0.07,-0.23 -0.04,-0.11 -0.12,-0.2 -0.08,-0.09 -0.19,-0.14 -0.11,-0.05 -0.23,-0.05 -0.12,0 -0.23,0.06 -0.1,0.05 -0.18,0.14 -0.07,0.09 -0.12,0.2 -0.04,0.11 -0.07,0.23 -0.02,0.11 -0.03,0.23 -0.01,0.11 -0.01,0.2300002 v 3.05 q 0,0.12 0.01,0.24 0.01,0.11 0.03,0.23 0.03,0.12 0.07,0.23 0.05,0.11 0.12,0.2 0.08,0.09 0.19,0.14 0.11,0.05 0.23,0.05 z"
         id="path1571" />
      <path
         d="M 39.372442,15.24 V 7.8899998 h 1.98 q 0.29,0 0.57,0.07 0.28,0.06 0.52,0.22 0.25,0.15 0.42,0.38 0.18,0.23 0.28,0.5 0.11,0.27 0.15,0.56 0.04,0.28 0.04,0.5700002 0,0.32 -0.05,0.64 -0.05,0.32 -0.19,0.61 -0.13,0.29 -0.36,0.53 -0.23,0.23 -0.53,0.36 l 1.31,2.91 h -1.41 l -1.24,-2.75 h -0.12 v 2.75 z m 1.98,-3.89 q 0.12,0 0.23,-0.06 0.11,-0.07 0.17,-0.17 0.07,-0.1 0.11,-0.21 0.04,-0.12 0.06,-0.24 0.03,-0.12 0.03,-0.24 0.01,-0.12 0.01,-0.24 0,-0.12 -0.01,-0.2400002 0,-0.12 -0.03,-0.24 -0.02,-0.12 -0.06,-0.23 -0.04,-0.12 -0.11,-0.22 -0.06,-0.11 -0.17,-0.17 -0.11,-0.06 -0.23,-0.06 h -0.61 V 11.35 Z"
         id="path1573" />
      <path
         d="M 43.843256,15.24 V 7.8899998 h 1.51 q 0.33,0 0.65,0.06 0.32,0.05 0.61,0.19 0.29,0.13 0.53,0.36 0.24,0.22 0.39,0.51 0.15,0.28 0.21,0.6 0.06,0.32 0.06,0.6400002 v 2.62 q 0,0.33 -0.06,0.65 -0.06,0.32 -0.21,0.61 -0.15,0.28 -0.39,0.51 -0.24,0.22 -0.53,0.36 -0.29,0.13 -0.61,0.19 -0.32,0.05 -0.65,0.05 z m 1.52,-1.14 q 0.23,0 0.45,-0.08 0.22,-0.09 0.36,-0.27 0.15,-0.18 0.2,-0.41 0.06,-0.23 0.06,-0.47 v -2.62 q 0,-0.23 -0.06,-0.4600002 -0.05,-0.23 -0.2,-0.41 -0.14,-0.18 -0.36,-0.26 -0.22,-0.09 -0.46,-0.09 h -0.14 V 14.1 Z"
         id="path1575" />
    </g>
    <g
       aria-label="CLK"
       id="text1136"
       style="font-weight:500;font-size:4.99999px;font-family:Iosevka;-inkscape-font-specification:'Iosevka, Medium';text-align:center;text-anchor:middle;white-space:pre;stroke-width:0.264583">
      <path
         d="m 33.045021,40.679999 q -0.13,0 -0.265,-0.025 -0.129999,-0.025 -0.249999,-0.09 -0.115,-0.065 -0.205,-0.165 -0.09,-0.1 -0.15,-0.22 -0.055,-0.124999 -0.075,-0.254999 -0.02,-0.135 -0.02,-0.265 v -1.714996 q 0,-0.13 0.02,-0.26 0.02,-0.134999 0.075,-0.254999 0.06,-0.125 0.15,-0.225 0.09,-0.1 0.205,-0.164999 0.12,-0.065 0.249999,-0.09 0.135,-0.025 0.265,-0.025 0.124999,0 0.249999,0.02 0.125,0.02 0.235,0.075 0.115,0.055 0.204999,0.144999 0.095,0.085 0.155,0.195 0.06,0.11 0.09,0.234999 0.03,0.12 0.03,0.245 0,0.005 0,0.01 0,0 0,0.005 H 33.56002 q 0,0 0,0 0,-0.005 0,-0.005 0,-0.105 -0.035,-0.205 -0.03,-0.1 -0.105,-0.174999 -0.07,-0.08 -0.17,-0.11 -0.1,-0.035 -0.204999,-0.035 -0.115,0 -0.225,0.05 -0.105,0.045 -0.174999,0.14 -0.065,0.09 -0.09,0.204999 -0.025,0.11 -0.025,0.225 v 1.714996 q 0,0.115 0.025,0.23 0.025,0.11 0.09,0.204999 0.07,0.09 0.174999,0.14 0.11,0.045 0.225,0.045 0.105,0 0.204999,-0.03 0.1,-0.035 0.17,-0.11 0.075,-0.08 0.105,-0.179999 0.035,-0.1 0.035,-0.205 0,0 0,0 0,-0.005 0,-0.005 h 0.449999 q 0,0.005 0,0.01 0,0 0,0.005 0,0.125 -0.03,0.25 -0.03,0.119999 -0.09,0.229999 -0.06,0.11 -0.155,0.2 -0.09,0.085 -0.204999,0.139999 -0.11,0.055 -0.235,0.075 -0.125,0.02 -0.249999,0.02 z"
         id="path1578" />
      <path
         d="m 34.775008,40.639999 v -3.674992 h 0.449999 V 40.24 h 1.314997 v 0.399999 z"
         id="path1580" />
      <path
         d="m 37.199993,40.639999 v -3.674992 h 0.449999 v 1.629996 l 0.909999,-1.629996 h 0.499999 l -0.964998,1.669996 0.964998,2.004996 h -0.489999 l -0.464999,-0.974998 -0.275,-0.569999 -0.18,0.315 v 1.229997 z"
         id="path1582" />
    </g>
    <g
       aria-label="V/OCT"
       id="text1144"
       style="font-weight:500;font-size:4.99999px;font-family:Iosevka;-inkscape-font-specification:'Iosevka, Medium';text-align:center;text-anchor:middle;stroke-width:0.264583">
      <path
         d="M 9.9800341,40.639999 9.1950357,36.965007 h 0.4599991 l 0.4849992,2.449995 q 0.025,0.13 0.05,0.259999 0.025,0.13 0.05,0.265 0.025,-0.135 0.05,-0.265 0.025,-0.129999 0.05,-0.259999 l 0.484999,-2.449995 h 0.46 l -0.784999,3.674992 z"
         id="path1585" />
      <path
         d="m 11.770021,41.354998 1.479997,-4.82999 h 0.459999 l -1.479997,4.82999 z"
         id="path1587" />
      <path
         d="m 15.240005,40.679999 q -0.135,0 -0.27,-0.025 -0.13,-0.025 -0.249999,-0.09 -0.115,-0.065 -0.21,-0.165 -0.09,-0.1 -0.15,-0.22 -0.055,-0.119999 -0.08,-0.254999 -0.02,-0.135 -0.02,-0.265 v -1.714996 q 0,-0.13 0.02,-0.265 0.025,-0.134999 0.08,-0.254999 0.06,-0.125 0.15,-0.225 0.095,-0.1 0.21,-0.159999 0.119999,-0.065 0.249999,-0.095 0.135,-0.035 0.27,-0.035 0.134999,0 0.264999,0.035 0.135,0.03 0.25,0.095 0.119999,0.06 0.209999,0.159999 0.095,0.1 0.15,0.225 0.06,0.12 0.08,0.254999 0.025,0.135 0.025,0.265 v 1.714996 q 0,0.13 -0.025,0.265 -0.02,0.135 -0.08,0.254999 -0.055,0.12 -0.15,0.22 -0.09,0.1 -0.209999,0.165 -0.115,0.065 -0.25,0.09 -0.13,0.025 -0.264999,0.025 z m 0,-0.399999 q 0.114999,0 0.224999,-0.045 0.11,-0.045 0.18,-0.135 0.075,-0.095 0.1,-0.209999 0.025,-0.115 0.025,-0.23 v -1.714996 q 0,-0.115 -0.03,-0.23 -0.025,-0.115 -0.095,-0.204999 -0.07,-0.095 -0.185,-0.14 -0.11,-0.045 -0.229999,-0.045 -0.115,0 -0.225,0.05 -0.105,0.045 -0.175,0.14 -0.07,0.09 -0.095,0.204999 -0.025,0.11 -0.025,0.225 v 1.714996 q 0,0.115 0.025,0.23 0.025,0.115 0.095,0.209999 0.075,0.09 0.185,0.135 0.11,0.045 0.225,0.045 z"
         id="path1589" />
      <path
         d="m 17.72499,40.679999 q -0.13,0 -0.265,-0.025 -0.129999,-0.025 -0.249999,-0.09 -0.115,-0.065 -0.205,-0.165 -0.09,-0.1 -0.149999,-0.22 -0.055,-0.124999 -0.075,-0.254999 -0.02,-0.135 -0.02,-0.265 v -1.714996 q 0,-0.13 0.02,-0.26 0.02,-0.134999 0.075,-0.254999 0.06,-0.125 0.149999,-0.225 0.09,-0.1 0.205,-0.164999 0.12,-0.065 0.249999,-0.09 0.135,-0.025 0.265,-0.025 0.125,0 0.249999,0.02 0.125,0.02 0.235,0.075 0.115,0.055 0.204999,0.144999 0.095,0.085 0.155,0.195 0.06,0.11 0.09,0.234999 0.03,0.12 0.03,0.245 0,0.005 0,0.01 0,0 0,0.005 h -0.449999 q 0,0 0,0 0,-0.005 0,-0.005 0,-0.105 -0.035,-0.205 -0.03,-0.1 -0.105,-0.174999 -0.07,-0.08 -0.17,-0.11 -0.1,-0.035 -0.204999,-0.035 -0.115,0 -0.225,0.05 -0.105,0.045 -0.174999,0.14 -0.065,0.09 -0.09,0.204999 -0.025,0.11 -0.025,0.225 v 1.714996 q 0,0.115 0.025,0.23 0.025,0.11 0.09,0.204999 0.07,0.09 0.174999,0.14 0.11,0.045 0.225,0.045 0.105,0 0.204999,-0.03 0.1,-0.035 0.17,-0.11 0.075,-0.08 0.105,-0.179999 0.035,-0.1 0.035,-0.205 0,0 0,0 0,-0.005 0,-0.005 h 0.449999 q 0,0.005 0,0.01 0,0 0,0.005 0,0.125 -0.03,0.25 -0.03,0.119999 -0.09,0.229999 -0.06,0.11 -0.155,0.2 -0.09,0.085 -0.204999,0.139999 -0.11,0.055 -0.235,0.075 -0.124999,0.02 -0.249999,0.02 z"
         id="path1591" />
      <path
         d="m 20.014976,40.639999 v -3.274993 h -0.774999 v -0.399999 h 1.999996 v 0.399999 h -0.774998 v 3.274993 z"
         id="path1593" />
    </g>
    <g
       aria-label="V/OCT"
       id="text1204"
       style="font-weight:500;font-size:4.99999px;font-family:Iosevka;-inkscape-font-specification:'Iosevka, Medium';text-align:center;text-anchor:middle;stroke-width:0.264583">
      <path
         d="m 20.140034,116.84 -0.784998,-3.675 h 0.459999 l 0.484999,2.45 q 0.025,0.13 0.05,0.26 0.025,0.13 0.05,0.265 0.025,-0.135 0.05,-0.265 0.025,-0.13 0.05,-0.26 l 0.484999,-2.45 h 0.459999 l -0.784998,3.675 z"
         id="path1596" />
      <path
         d="m 21.930021,117.55499 1.479997,-4.82999 h 0.459999 l -1.479997,4.82999 z"
         id="path1598" />
      <path
         d="m 25.400004,116.88 q -0.134999,0 -0.269999,-0.025 -0.13,-0.025 -0.25,-0.09 -0.114999,-0.065 -0.209999,-0.165 -0.09,-0.1 -0.15,-0.22 -0.055,-0.12 -0.08,-0.255 -0.02,-0.135 -0.02,-0.265 v -1.715 q 0,-0.13 0.02,-0.265 0.025,-0.135 0.08,-0.255 0.06,-0.125 0.15,-0.225 0.095,-0.1 0.209999,-0.16 0.12,-0.065 0.25,-0.095 0.135,-0.035 0.269999,-0.035 0.135,0 0.265,0.035 0.135,0.03 0.249999,0.095 0.12,0.06 0.21,0.16 0.095,0.1 0.15,0.225 0.06,0.12 0.08,0.255 0.025,0.135 0.025,0.265 v 1.715 q 0,0.13 -0.025,0.265 -0.02,0.135 -0.08,0.255 -0.055,0.12 -0.15,0.22 -0.09,0.1 -0.21,0.165 -0.114999,0.065 -0.249999,0.09 -0.13,0.025 -0.265,0.025 z m 0,-0.4 q 0.115,0 0.225,-0.045 0.11,-0.045 0.18,-0.135 0.075,-0.095 0.1,-0.21 0.025,-0.115 0.025,-0.23 v -1.715 q 0,-0.115 -0.03,-0.23 -0.025,-0.115 -0.095,-0.205 -0.07,-0.095 -0.185,-0.14 -0.11,-0.045 -0.23,-0.045 -0.114999,0 -0.224999,0.05 -0.105,0.045 -0.175,0.14 -0.07,0.09 -0.095,0.205 -0.025,0.11 -0.025,0.225 v 1.715 q 0,0.115 0.025,0.23 0.025,0.115 0.095,0.21 0.075,0.09 0.185,0.135 0.11,0.045 0.224999,0.045 z"
         id="path1600" />
      <path
         d="m 27.88499,116.88 q -0.13,0 -0.265,-0.025 -0.13,-0.025 -0.249999,-0.09 -0.115,-0.065 -0.205,-0.165 -0.09,-0.1 -0.15,-0.22 -0.055,-0.125 -0.075,-0.255 -0.02,-0.135 -0.02,-0.265 v -1.715 q 0,-0.13 0.02,-0.26 0.02,-0.135 0.075,-0.255 0.06,-0.125 0.15,-0.225 0.09,-0.1 0.205,-0.165 0.119999,-0.065 0.249999,-0.09 0.135,-0.025 0.265,-0.025 0.124999,0 0.249999,0.02 0.125,0.02 0.235,0.075 0.114999,0.055 0.204999,0.145 0.095,0.085 0.155,0.195 0.06,0.11 0.09,0.235 0.03,0.12 0.03,0.245 0,0.005 0,0.01 0,0 0,0.005 h -0.449999 q 0,0 0,0 0,-0.005 0,-0.005 0,-0.105 -0.035,-0.205 -0.03,-0.1 -0.105,-0.175 -0.07,-0.08 -0.17,-0.11 -0.1,-0.035 -0.204999,-0.035 -0.115,0 -0.225,0.05 -0.105,0.045 -0.175,0.14 -0.065,0.09 -0.09,0.205 -0.025,0.11 -0.025,0.225 v 1.715 q 0,0.115 0.025,0.23 0.025,0.11 0.09,0.205 0.07,0.09 0.175,0.14 0.11,0.045 0.225,0.045 0.104999,0 0.204999,-0.03 0.1,-0.035 0.17,-0.11 0.075,-0.08 0.105,-0.18 0.035,-0.1 0.035,-0.205 0,0 0,0 0,-0.005 0,-0.005 h 0.449999 q 0,0.005 0,0.01 0,0 0,0.005 0,0.125 -0.03,0.25 -0.03,0.12 -0.09,0.23 -0.06,0.11 -0.155,0.2 -0.09,0.085 -0.204999,0.14 -0.11,0.055 -0.235,0.075 -0.125,0.02 -0.249999,0.02 z"
         id="path1602" />
      <path
         d="m 30.174976,116.84 v -3.275 h -0.774999 v -0.4 h 1.999996 v 0.4 h -0.774998 v 3.275 z"
         id="path1604" />
    </g>
    <g
       aria-label="OFFSET"
       id="text1214"
       style="font-weight:500;font-size:4.99999px;font-family:Iosevka;-inkscape-font-specification:'Iosevka, Medium';text-align:center;text-anchor:middle;stroke-width:0.264583">
      <path
         d="m 29.310043,66.080001 q -0.135,0 -0.27,-0.025 -0.13,-0.025 -0.249999,-0.09 -0.115,-0.065 -0.21,-0.165 -0.09,-0.1 -0.15,-0.219999 -0.055,-0.12 -0.08,-0.255 -0.02,-0.134999 -0.02,-0.264999 v -1.714997 q 0,-0.129999 0.02,-0.264999 0.025,-0.135 0.08,-0.255 0.06,-0.124999 0.15,-0.224999 0.095,-0.1 0.21,-0.16 0.119999,-0.065 0.249999,-0.095 0.135,-0.035 0.27,-0.035 0.134999,0 0.264999,0.035 0.135,0.03 0.249999,0.095 0.12,0.06 0.21,0.16 0.095,0.1 0.15,0.224999 0.06,0.12 0.08,0.255 0.025,0.135 0.025,0.264999 v 1.714997 q 0,0.13 -0.025,0.264999 -0.02,0.135 -0.08,0.255 -0.055,0.12 -0.15,0.219999 -0.09,0.1 -0.21,0.165 -0.114999,0.065 -0.249999,0.09 -0.13,0.025 -0.264999,0.025 z m 0,-0.399999 q 0.114999,0 0.224999,-0.045 0.11,-0.045 0.18,-0.135 0.075,-0.095 0.1,-0.21 0.025,-0.114999 0.025,-0.229999 v -1.714997 q 0,-0.114999 -0.03,-0.229999 -0.025,-0.115 -0.095,-0.205 -0.07,-0.095 -0.185,-0.14 -0.11,-0.045 -0.229999,-0.045 -0.115,0 -0.225,0.05 -0.105,0.045 -0.175,0.14 -0.07,0.09 -0.095,0.205 -0.025,0.11 -0.025,0.224999 v 1.714997 q 0,0.115 0.025,0.229999 0.025,0.115 0.095,0.21 0.075,0.09 0.185,0.135 0.11,0.045 0.225,0.045 z"
         id="path1607" />
      <path
         d="m 31.02503,66.040001 v -3.674993 h 1.724996 v 0.399999 h -1.274997 v 1.164998 h 0.994998 v 0.399999 h -0.994998 v 1.709997 z"
         id="path1609" />
      <path
         d="m 33.525015,66.040001 v -3.674993 h 1.724997 v 0.399999 h -1.274998 v 1.164998 h 0.994998 v 0.399999 h -0.994998 v 1.709997 z"
         id="path1611" />
      <path
         d="m 36.804999,66.080001 q -0.13,0 -0.255,-0.02 -0.125,-0.02 -0.239999,-0.075 -0.115,-0.055 -0.21,-0.14 -0.095,-0.09 -0.16,-0.199999 -0.06,-0.11 -0.09,-0.23 -0.03,-0.125 -0.03,-0.254999 0,0 0,-0.005 0,-0.005 0,-0.005 H 36.27 q 0,0 0,0.005 0,0 0,0 0,0.104999 0.035,0.209999 0.035,0.1 0.109999,0.175 0.075,0.075 0.18,0.11 0.105,0.03 0.21,0.03 0.109999,0 0.214999,-0.035 0.105,-0.04 0.18,-0.12 0.075,-0.085 0.105,-0.19 0.035,-0.109999 0.035,-0.219999 0,-0.125 -0.05,-0.24 -0.05,-0.12 -0.14,-0.204999 -0.09,-0.09 -0.2,-0.145 -0.109999,-0.06 -0.224999,-0.115 -0.11,-0.06 -0.22,-0.12 -0.105,-0.065 -0.199999,-0.139999 -0.095,-0.08 -0.18,-0.175 -0.08,-0.095 -0.14,-0.205 -0.055,-0.109999 -0.085,-0.229999 -0.03,-0.125 -0.03,-0.25 0,-0.124999 0.025,-0.249999 0.03,-0.13 0.085,-0.24 0.055,-0.114999 0.145,-0.209999 0.09,-0.095 0.2,-0.155 0.109999,-0.06 0.234999,-0.085 0.13,-0.025 0.255,-0.025 0.124999,0 0.249999,0.025 0.125,0.02 0.235,0.075 0.109999,0.055 0.199999,0.145 0.09,0.09 0.145,0.199999 0.06,0.11 0.085,0.235 0.03,0.12 0.03,0.24 0,0.005 0,0.01 0,0 0,0.005 h -0.449999 q 0,-0.005 0,-0.005 0,0 0,-0.005 0,-0.1 -0.03,-0.2 -0.03,-0.1 -0.1,-0.175 -0.065,-0.08 -0.165,-0.115 -0.095,-0.035 -0.199999,-0.035 -0.105,0 -0.205,0.045 -0.1,0.04 -0.165,0.125 -0.065,0.08 -0.095,0.185 -0.03,0.105 -0.03,0.209999 0,0.125 0.05,0.245 0.05,0.115 0.134999,0.205 0.09,0.085 0.2,0.144999 0.11,0.055 0.219999,0.11 0.115,0.055 0.22,0.12 0.11,0.065 0.205,0.144999 0.1,0.075 0.179999,0.17 0.085,0.095 0.14,0.205 0.06,0.11 0.09,0.234999 0.03,0.12 0.03,0.245 0,0.13 -0.03,0.259999 -0.03,0.125 -0.09,0.24 -0.06,0.115 -0.155,0.209999 -0.09,0.09 -0.209999,0.15 -0.115,0.06 -0.245,0.08 -0.125,0.025 -0.254999,0.025 z"
         id="path1613" />
      <path
         d="m 38.409986,66.040001 v -3.674993 h 1.839996 v 0.399999 h -1.389997 v 1.164998 h 1.109998 v 0.399999 h -1.109998 v 1.309998 h 1.389997 v 0.399999 z"
         id="path1615" />
      <path
         d="m 41.58497,66.040001 v -3.274994 h -0.774998 v -0.399999 h 1.999996 v 0.399999 H 42.03497 v 3.274994 z"
         id="path1617" />
    </g>
  </g>
  <g
     inkscape:groupmode="layer"
     id="g1533"
     inkscape:label="Layer 1 copy"
     style="display:none">
    <text
       xml:space="preserve"
       style="font-style:normal;font-variant:normal;font-weight:500;font-stretch:normal;font-size:4.99999px;font-family:Iosevka;-inkscape-font-specification:'Iosevka, Medium';font-variant-ligatures:normal;font-variant-caps:normal;font-variant-numeric:normal;font-variant-east-asian:normal;text-align:center;writing-mode:lr-tb;text-anchor:middle;display:inline;fill:#000000;stroke-width:0.264583"
       x="25.4"
       y="86.360001"
       id="text1509"><tspan
         sodipodi:role="line"
         id="tspan1507"
         style="stroke-width:0.264583"
         x="25.4"
         y="86.360001">SCALE</tspan></text>
    <text
       xml:space="preserve"
       style="font-style:normal;font-variant:normal;font-weight:500;font-stretch:normal;font-size:4.99999px;font-family:Iosevka;-inkscape-font-specification:'Iosevka, Medium';font-variant-ligatures:normal;font-variant-caps:normal;font-variant-numeric:normal;font-variant-east-asian:normal;text-align:center;writing-mode:lr-tb;text-anchor:middle;display:inline;fill:#000000;stroke-width:0.264583"
       x="15.24"
       y="66.040001"
       id="text1513"><tspan
         sodipodi:role="line"
         id="tspan1511"
         style="stroke-width:0.264583"
         x="15.24"
         y="66.040001">STEPS</tspan></text>
    <text
       xml:space="preserve"
       style="font-style:normal;font-variant:normal;font-weight:900;font-stretch:normal;font-size:10px;font-family:Iosevka;-inkscape-font-specification:'Iosevka, Heavy';font-variant-ligatures:normal;font-variant-caps:normal;font-variant-numeric:normal;font-variant-east-asian:normal;text-align:center;letter-spacing:-0.529167px;writing-mode:lr-tb;text-anchor:middle;white-space:pre;display:inline;fill:#000000;stroke-width:0.264583"
       x="25.664585"
       y="15.24"
       id="text1517"><tspan
         id="tspan1515"
         style="fill:#000000;stroke-width:0.264583">ARPSICHORD</tspan></text>
    <text
       xml:space="preserve"
       id="text1519"
       style="font-style:normal;font-variant:normal;font-weight:500;font-stretch:normal;font-size:4.99999px;font-family:Iosevka;-inkscape-font-specification:'Iosevka, Medium';font-variant-ligatures:normal;font-variant-caps:normal;font-variant-numeric:normal;font-variant-east-asian:normal;text-align:center;writing-mode:lr-tb;text-anchor:middle;white-space:pre;fill:#000000;stroke-width:0.264583"
       x="35.560001"
       y="40.639999">CLK</text>
    <text
       xml:space="preserve"
       style="font-style:normal;font-variant:normal;font-weight:500;font-stretch:normal;font-size:4.99999px;font-family:Iosevka;-inkscape-font-specification:'Iosevka, Medium';font-variant-ligatures:normal;font-variant-caps:normal;font-variant-numeric:normal;font-variant-east-asian:normal;text-align:center;writing-mode:lr-tb;text-anchor:middle;fill:#000000;stroke-width:0.264583"
       x="15.24"
       y="40.639999"
       id="text1523"><tspan
         sodipodi:role="line"
         id="tspan1521"
         style="stroke-width:0.264583"
         x="15.24"
         y="40.639999">V/OCT</tspan></text>
    <text
       xml:space="preserve"
       style="font-style:normal;font-variant:normal;font-weight:500;font-stretch:normal;font-size:4.99999px;font-family:Iosevka;-inkscape-font-specification:'Iosevka, Medium';font-variant-ligatures:normal;font-variant-caps:normal;font-variant-numeric:normal;font-variant-east-asian:normal;text-align:center;writing-mode:lr-tb;text-anchor:middle;fill:#000000;stroke-width:0.264583"
       x="25.4"
       y="116.84"
       id="text1527"><tspan
         sodipodi:role="line"
         id="tspan1525"
         style="stroke-width:0.264583"
         x="25.4"
         y="116.84">V/OCT</tspan></text>
    <text
       xml:space="preserve"
       style="font-style:normal;font-variant:normal;font-weight:500;font-stretch:normal;font-size:4.99999px;font-family:Iosevka;-inkscape-font-specification:'Iosevka, Medium';font-variant-ligatures:normal;font-variant-caps:normal;font-variant-numeric:normal;font-variant-east-asian:normal;text-align:center;writing-mode:lr-tb;text-anchor:middle;fill:#000000;stroke-width:0.264583"
       x="35.560001"
       y="66.040001"
       id="text1531"><tspan
         sodipodi:role="line"
         id="tspan1529"
         style="stroke-width:0.264583"
         x="35.560001"
         y="66.040001">OFFSET</tspan></text>
  </g>
</svg>
