<?xml version="1.0" encoding="UTF-8" standalone="no"?>
<!-- Created with Inkscape (http://www.inkscape.org/) -->

<svg
   width="50.799999mm"
   height="128.5mm"
   viewBox="0 0 50.8 128.5"
   version="1.1"
   id="svg5"
   inkscape:version="1.2.2 (b0a84865, 2022-12-01)"
   sodipodi:docname="damnModule.svg"
   xmlns:inkscape="http://www.inkscape.org/namespaces/inkscape"
   xmlns:sodipodi="http://sodipodi.sourceforge.net/DTD/sodipodi-0.dtd"
   xmlns="http://www.w3.org/2000/svg"
   xmlns:svg="http://www.w3.org/2000/svg">
  <sodipodi:namedview
     id="namedview7"
     pagecolor="#505050"
     bordercolor="#eeeeee"
     borderopacity="1"
     inkscape:showpageshadow="0"
     inkscape:pageopacity="0"
     inkscape:pagecheckerboard="0"
     inkscape:deskcolor="#505050"
     inkscape:document-units="mm"
     showgrid="true"
     inkscape:zoom="1.0976568"
     inkscape:cx="-108.86827"
     inkscape:cy="187.21699"
     inkscape:window-width="2560"
     inkscape:window-height="1387"
     inkscape:window-x="0"
     inkscape:window-y="25"
     inkscape:window-maximized="1"
     inkscape:current-layer="layer1"
     showguides="false">
    <sodipodi:guide
       position="25.4,128.5"
       orientation="-1,0"
       id="guide824"
       inkscape:locked="false"
       inkscape:label=""
       inkscape:color="rgb(0,134,229)" />
    <inkscape:grid
       type="xygrid"
       id="grid160"
       units="mm"
       spacingx="1"
       spacingy="1"
       originx="25.4"
       originy="0"
       empspacing="10" />
  </sodipodi:namedview>
  <defs
     id="defs2" />
  <g
     inkscape:label="Layer 1"
     inkscape:groupmode="layer"
     id="layer1">
    <rect
       style="fill:#6c5353;stroke-width:0.266529"
       id="rect331"
       width="60"
       height="130"
       x="-4.5999999"
       y="-1.7763568e-15" />
    <g
       aria-label="DAMN"
       id="text753"
       style="font-weight:bold;font-size:10px;font-family:'Avenir Next';-inkscape-font-specification:'Avenir Next, Bold';fill:#2b0000;stroke-width:0.264583">
      <path
         d="m 16.620018,10.60792 q 0,0.93 -0.35,1.61 -0.34,0.67 -0.91,1.11 -0.56,0.43 -1.27,0.64 -0.71,0.2 -1.44,0.2 h -2.64 V 7.0879201 h 2.56 q 0.75,0 1.48,0.18 0.73,0.17 1.3,0.58 0.57,0.4 0.92,1.08 0.35,0.68 0.35,1.6799999 z m -1.78,0 q 0,-0.6 -0.2,-0.9899999 -0.19,-0.4 -0.52,-0.63 -0.32,-0.24 -0.74,-0.34 -0.41,-0.1 -0.85,-0.1 h -0.85 V 12.68792 h 0.81 q 0.46,0 0.88,-0.1 0.43,-0.11 0.75,-0.35 0.33,-0.24 0.52,-0.64 0.2,-0.4 0.2,-0.99 z"
         style="text-align:center;text-anchor:middle"
         id="path197" />
      <path
         d="m 22.309999,14.16792 -0.55,-1.39 h -2.74 l -0.52,1.39 h -1.86 l 2.97,-7.0799999 h 1.66 l 2.94,7.0799999 z m -1.9,-5.1899999 -0.9,2.4299999 h 1.78 z"
         style="text-align:center;text-anchor:middle"
         id="path199" />
      <path
         d="m 31.219981,14.16792 0.04,-5.0099999 h -0.03 l -1.84,5.0099999 h -1.2 l -1.79,-5.0099999 h -0.03 l 0.04,5.0099999 h -1.61 V 7.0879201 h 2.43 l 1.61,4.5399999 h 0.04 l 1.54,-4.5399999 h 2.47 V 14.16792 Z"
         style="text-align:center;text-anchor:middle"
         id="path201" />
      <path
         d="m 38.84998,14.16792 -2.85,-4.6299999 h -0.03 l 0.04,4.6299999 h -1.66 V 7.0879201 h 1.95 l 2.84,4.6199999 h 0.03 l -0.04,-4.6199999 h 1.66 V 14.16792 Z"
         style="text-align:center;text-anchor:middle"
         id="path203" />
    </g>
  </g>
  <g
     inkscape:groupmode="layer"
     id="layer2"
     inkscape:label="components"
     style="display:none">
    <circle
       style="fill:#ff0000;stroke-width:0.264583"
       id="path826"
       cx="25.4"
       cy="39.713104"
       r="8.2868977"
       inkscape:label="knobbie" />
    <ellipse
       style="fill:#ff00ff;stroke-width:0.264583"
       id="path934-0-9"
       cx="25.4"
       cy="59.980423"
       rx="8.2868977"
       ry="8.019578"
       inkscape:label="blinkie" />
    <ellipse
       style="fill:#00ff00;stroke-width:0.264583"
       id="path934"
       cx="25.4"
       cy="80"
       rx="8.2868977"
       ry="8.019578"
       inkscape:label="innie" />
    <ellipse
       style="fill:#0000ff;stroke-width:0.264583"
       id="path934-0"
       cx="25.4"
       cy="100"
       rx="8.2868977"
       ry="8.019578"
       inkscape:label="outtie" />
  </g>
</svg>
