<?xml version="1.0" encoding="UTF-8" standalone="no"?>
<svg
   id="svg5"
   width="50.799999mm"
   height="128.5mm"
   viewBox="0 0 50.799999 128.5"
   version="1.1"
   sodipodi:docname="quantize.svg"
   inkscape:version="1.2.2 (b0a84865, 2022-12-01)"
   xmlns:inkscape="http://www.inkscape.org/namespaces/inkscape"
   xmlns:sodipodi="http://sodipodi.sourceforge.net/DTD/sodipodi-0.dtd"
   xmlns="http://www.w3.org/2000/svg"
   xmlns:svg="http://www.w3.org/2000/svg">
  <defs
     id="defs50" />
  <sodipodi:namedview
     id="namedview48"
     pagecolor="#505050"
     bordercolor="#eeeeee"
     borderopacity="1"
     inkscape:showpageshadow="0"
     inkscape:pageopacity="0"
     inkscape:pagecheckerboard="0"
     inkscape:deskcolor="#505050"
     inkscape:document-units="mm"
     showgrid="true"
     inkscape:zoom="1.1409704"
     inkscape:cx="-17.090715"
     inkscape:cy="235.326"
     inkscape:window-width="1728"
     inkscape:window-height="993"
     inkscape:window-x="832"
     inkscape:window-y="1478"
     inkscape:window-maximized="0"
     inkscape:current-layer="svg5">
    <inkscape:grid
       type="xygrid"
       id="grid102"
       units="in"
       spacingx="5.08"
       spacingy="5.08"
       originx="0"
       originy="0" />
  </sodipodi:namedview>
  <g
     id="layer1"
     transform="scale(0.29868295,0.34871099)">
    <rect
       id="rect331"
       width="170.08"
       height="368.5"
       fill="#ffeee6"
       x="0"
       y="0" />
  </g>
  <g
     id="Layer_3"
     data-name="Layer 3"
     style="display:inline"
     transform="matrix(0.39817381,0,0,0.39817381,-4.3466902,-0.37427099)">
    <g
       id="g27"
       transform="translate(-9.3322024,0.75646352)"
       inkscape:label="g27">
      <path
         d="M 35.68,36.35 A 5.22,5.22 0 0 1 34.8,36.28 2.69,2.69 0 0 1 34,36 a 2.72,2.72 0 0 1 -0.71,-0.51 2.74,2.74 0 0 1 -0.8,-1.51 5.1,5.1 0 0 1 -0.08,-0.86 5.19,5.19 0 0 1 -1,-0.3 A 3.44,3.44 0 0 1 30.5,32.29 4.05,4.05 0 0 1 29.77,31.53 3.81,3.81 0 0 1 29.26,30.6 4.49,4.49 0 0 1 29,29.6 7.35,7.35 0 0 1 28.93,28.54 v -5.67 a 7.52,7.52 0 0 1 0.07,-1.24 4.52,4.52 0 0 1 0.38,-1.18 3.94,3.94 0 0 1 0.72,-1 3.76,3.76 0 0 1 1,-0.74 5.44,5.44 0 0 1 4.82,0 3.76,3.76 0 0 1 1,0.74 3.94,3.94 0 0 1 0.72,1 4.52,4.52 0 0 1 0.36,1.18 7.52,7.52 0 0 1 0.11,1.24 v 5.66 c 0,0.32 0,0.64 0,0.95 a 3.62,3.62 0 0 1 -0.21,0.92 5.18,5.18 0 0 1 -0.4,0.86 3.47,3.47 0 0 1 -0.57,0.74 3.79,3.79 0 0 1 -0.74,0.58 3.41,3.41 0 0 1 -0.87,0.39 v 0.08 a 2.35,2.35 0 0 0 0,0.27 1.09,1.09 0 0 0 0.05,0.26 1.15,1.15 0 0 0 0.12,0.25 0.25,0.25 0 0 0 0.22,0.12 h 1.19 v 2.4 z M 33.5,30.81 a 1.62,1.62 0 0 0 0.77,-0.19 1.35,1.35 0 0 0 0.58,-0.53 2,2 0 0 0 0.28,-0.75 4.43,4.43 0 0 0 0.07,-0.81 v -5.66 a 4.47,4.47 0 0 0 -0.07,-0.82 2,2 0 0 0 -0.29,-0.74 1.51,1.51 0 0 0 -0.59,-0.53 1.75,1.75 0 0 0 -0.77,-0.19 1.58,1.58 0 0 0 -1.33,0.74 2.22,2.22 0 0 0 -0.28,0.74 4.33,4.33 0 0 0 -0.07,0.8 v 5.66 a 4.43,4.43 0 0 0 0.07,0.81 2,2 0 0 0 0.28,0.75 1.35,1.35 0 0 0 0.58,0.53 1.62,1.62 0 0 0 0.77,0.19 z"
         transform="translate(13.04)"
         id="path11" />
      <path
         d="m 44.5,33.21 a 7.3,7.3 0 0 1 -1.23,-0.11 3.46,3.46 0 0 1 -1.14,-0.41 3.83,3.83 0 0 1 -1,-0.76 4,4 0 0 1 -0.68,-1 4.48,4.48 0 0 1 -0.36,-1.16 7.21,7.21 0 0 1 -0.1,-1.23 V 18.35 H 43 v 10.18 c 0,0.18 0,0.35 0,0.52 a 2.09,2.09 0 0 0 0.09,0.51 2.53,2.53 0 0 0 0.19,0.48 1.55,1.55 0 0 0 0.3,0.41 1.12,1.12 0 0 0 0.43,0.27 1.49,1.49 0 0 0 1,0 1.12,1.12 0 0 0 0.43,-0.27 1.55,1.55 0 0 0 0.3,-0.41 2.53,2.53 0 0 0 0.19,-0.48 2.09,2.09 0 0 0 0.09,-0.51 c 0,-0.17 0,-0.34 0,-0.52 V 18.35 H 49 v 10.18 a 7.21,7.21 0 0 1 -0.1,1.23 4.48,4.48 0 0 1 -0.36,1.16 4,4 0 0 1 -0.68,1 3.83,3.83 0 0 1 -1,0.76 3.46,3.46 0 0 1 -1.14,0.41 7.3,7.3 0 0 1 -1.22,0.12 z"
         transform="translate(13.04)"
         id="path13" />
      <path
         d="m 50.38,33.05 2.3,-9.8 1.14,-4.9 h 3.36 l 1.14,4.9 2.3,9.8 h -3 L 57,30.25 h -3 l -0.58,2.8 z m 6.18,-5.2 -0.94,-4.6 a 2.29,2.29 0 0 1 -0.07,-0.28 2.33,2.33 0 0 1 0,-0.28 2.33,2.33 0 0 1 0,0.28 2.29,2.29 0 0 1 -0.07,0.28 l -0.94,4.6 z"
         transform="translate(13.04)"
         id="path15" />
      <path
         d="m 62,33.05 v -14.7 h 2.7 l 3.66,9.48 a 15.89,15.89 0 0 1 -0.25,-1.8 c 0,-0.6 -0.07,-1.2 -0.07,-1.8 V 18.35 H 71 v 14.7 h -2.7 l -3.66,-9.48 a 15.89,15.89 0 0 1 0.25,1.8 c 0,0.6 0.07,1.2 0.07,1.8 v 5.88 z"
         transform="translate(13.04)"
         id="path17" />
      <path
         d="m 76,33.05 v -12.3 h -3.2 v -2.4 h 9.4 v 2.4 H 79 v 12.3 z"
         transform="translate(13.04)"
         id="path19" />
      <path
         d="m 84.48,33.05 v -2.4 H 87 v -9.9 h -2.52 v -2.4 h 8 v 2.4 H 90 v 9.9 h 2.56 v 2.4 z"
         transform="translate(13.04)"
         id="path21" />
      <path
         d="m 95,33.05 v -2.4 l 5.56,-9.9 H 95 v -2.4 h 9 v 2.4 l -5.56,9.9 H 104 v 2.4 z"
         transform="translate(13.04)"
         id="path23" />
      <path
         d="m 106.2,33.05 v -14.7 h 8.8 v 2.4 h -5.84 v 3.46 h 4.5 v 2.4 h -4.5 v 4 H 115 v 2.4 z"
         transform="translate(13.04)"
         id="path25"
         style="display:inline" />
    </g>
  </g>
  <g
     id="components"
     style="display:none"
     inkscape:label="components">
    <circle
       cx="25.4"
       cy="30.48"
       r="5.0799999"
       fill="#ff0000"
       id="circle30"
       inkscape:label="note"
       style="stroke-width:0.352778" />
    <circle
       cx="25.4"
       cy="40.69965"
       r="5.1396465"
       fill="#00ff00"
       id="circle32"
       inkscape:label="note in"
       style="stroke-width:0.35692" />
    <circle
       cx="25.4"
       cy="60.960007"
       r="5.0799985"
       fill="#ff0000"
       id="circle34"
       inkscape:label="scale"
       style="stroke-width:0.352777" />
    <circle
       cx="25.4"
       cy="71.120003"
       r="5.0799999"
       fill="#00ff00"
       id="circle36"
       inkscape:label="scale in"
       style="stroke-width:0.352778" />
    <circle
       cx="25.4"
       cy="91.440002"
       r="5.079998"
       fill="#ff0000"
       id="circle38"
       inkscape:label="octave"
       style="stroke-width:0.352778" />
    <circle
       cx="25.4"
       cy="101.60001"
       r="5.0799994"
       fill="#00ff00"
       id="circle44"
       inkscape:label="octave in"
       style="stroke-width:0.352777" />
    <circle
       cx="10.16"
       cy="116.84"
       r="5.079999"
       fill="#00ff00"
       id="circle40"
       inkscape:label="cv in"
       style="stroke-width:0.352778" />
    <circle
       cx="40.639999"
       cy="116.84"
       r="5.079999"
       fill="#0000ff"
       id="circle42"
       inkscape:label="cv out"
       style="display:inline;stroke-width:0.352778" />
  </g>
</svg>
